<?xml version="1.0" encoding="UTF-8" standalone="no"?>
<svg
    xmlns:inkscape="http://www.inkscape.org/namespaces/inkscape"
    xmlns:rdf="http://www.w3.org/1999/02/22-rdf-syntax-ns#"
    xmlns="http://www.w3.org/2000/svg"
    xmlns:cc="http://creativecommons.org/ns#"
    xmlns:dc="http://purl.org/dc/elements/1.1/"
    xmlns:sodipodi="http://sodipodi.sourceforge.net/DTD/sodipodi-0.dtd"
    id="svg2"
    style="stroke-linejoin:round;stroke-width:28.222;fill-rule:evenodd"
    clip-path="url(#presentation_clip_path)"
    sodipodi:docname="_svgclean2.svg"
    xml:space="preserve"
    viewBox="0 0 6921.9999 10696.2"
    version="1.2"
    inkscape:version="0.91pre3 r13670"
  ><defs
      id="defs3"
    >
  <clipPath
        id="presentation_clip_path"
        clipPathUnits="userSpaceOnUse"
      >
   <rect
          id="rect7"
          y="0"
          x="0"
          height="19050"
          width="25400"
      />
  </clipPath
    >
  <font
        id="EmbeddedFont_1"
        horiz-origin-x="0"
        horiz-origin-y="0"
        horiz-adv-x="2048"
        vert-origin-x="45"
        vert-origin-y="90"
        vert-adv-y="90"
      >
   <font-face
          id="font-face12"
          font-family="Calibri embedded"
          ascent="1879"
          units-per-em="2048"
          descent="476"
      />
   <missing-glyph
          id="missing-glyph14"
          horiz-adv-x="2048"
          d="M 0,0 L 2047,0 2047,2047 0,2047 0,0 Z"
      />
   <glyph
          id="glyph16"
          horiz-adv-x="1086"
          unicode="x"
          d="M 1124,1120 L 719,575 1145,0 928,0 602,440 276,0 59,0 494,586 96,1120 313,1120 610,721 907,1120 1124,1120 Z"
      />
   <glyph
          id="glyph18"
          horiz-adv-x="1086"
          unicode="v"
          d="M 61,1120 L 256,1120 606,180 956,1120 1151,1120 731,0 481,0 61,1120 Z"
      />
   <glyph
          id="glyph20"
          horiz-adv-x="927"
          unicode="u"
          d="M 174,442 L 174,1120 358,1120 358,449 C 358,343 379,264 420,211 461,158 523,131 606,131 705,131 784,163 842,226 899,289 928,376 928,485 L 928,1120 1112,1120 1112,0 928,0 928,172 C 883,104 832,54 773,21 714,-12 645,-29 567,-29 438,-29 341,11 274,91 207,171 174,288 174,442 Z "
      />
   <glyph
          id="glyph22"
          horiz-adv-x="689"
          unicode="t"
          d="M 375,1438 L 375,1120 754,1120 754,977 375,977 375,369 C 375,278 388,219 413,193 438,167 488,154 565,154 L 754,154 754,0 565,0 C 423,0 325,27 271,80 217,133 190,229 190,369 L 190,977 55,977 55,1120 190,1120 190,1438 375,1438 Z"
      />
   <glyph
          id="glyph24"
          horiz-adv-x="663"
          unicode="r"
          d="M 842,948 C 821,960 799,969 775,975 750,980 723,983 694,983 590,983 510,949 455,882 399,814 371,717 371,590 L 371,0 186,0 186,1120 371,1120 371,946 C 410,1014 460,1065 522,1098 584,1131 659,1147 748,1147 761,1147 775,1146 790,1145 805,1143 822,1140 841,1137 L 842,948 Z"
      />
   <glyph
          id="glyph26"
          horiz-adv-x="1033"
          unicode="o"
          d="M 627,991 C 528,991 450,953 393,876 336,799 307,693 307,559 307,425 336,320 393,243 450,166 528,127 627,127 725,127 803,166 860,243 917,320 946,426 946,559 946,692 917,797 860,875 803,952 725,991 627,991 Z M 627,1147 C 787,1147 913,1095 1004,991 1095,887 1141,743 1141,559 1141,376 1095,232 1004,128 913,23 787,-29 627,-29 466,-29 341,23 250,128 159,232 113,376 113,559 113,743 159,887 250,991 341,1095 466,1147 627,1147 Z"
      />
   <glyph
          id="glyph28"
          horiz-adv-x="927"
          unicode="n"
          d="M 1124,676 L 1124,0 940,0 940,670 C 940,776 919,855 878,908 837,961 775,987 692,987 593,987 514,955 457,892 400,829 371,742 371,633 L 371,0 186,0 186,1120 371,1120 371,946 C 415,1013 467,1064 527,1097 586,1130 655,1147 733,1147 862,1147 959,1107 1025,1028 1091,948 1124,831 1124,676 Z"
      />
   <glyph
          id="glyph30"
          horiz-adv-x="1615"
          unicode="m"
          d="M 1065,905 C 1111,988 1166,1049 1230,1088 1294,1127 1369,1147 1456,1147 1573,1147 1663,1106 1726,1025 1789,943 1821,827 1821,676 L 1821,0 1636,0 1636,670 C 1636,777 1617,857 1579,909 1541,961 1483,987 1405,987 1310,987 1234,955 1179,892 1124,829 1096,742 1096,633 L 1096,0 911,0 911,670 C 911,778 892,858 854,910 816,961 757,987 678,987 584,987 509,955 454,892 399,828 371,742 371,633 L 371,0 186,0 186,1120 371,1120 371,946 C 413,1015 463,1065 522,1098 581,1131 650,1147 731,1147 812,1147 882,1126 939,1085 996,1044 1038,984 1065,905 Z"
      />
   <glyph
          id="glyph32"
          horiz-adv-x="186"
          unicode="l"
          d="M 193,1556 L 377,1556 377,0 193,0 193,1556 Z"
      />
   <glyph
          id="glyph34"
          horiz-adv-x="980"
          unicode="k"
          d="M 186,1556 L 371,1556 371,637 920,1120 1155,1120 561,596 1180,0 940,0 371,547 371,0 186,0 186,1556 Z"
      />
   <glyph
          id="glyph36"
          horiz-adv-x="186"
          unicode="i"
          d="M 193,1120 L 377,1120 377,0 193,0 193,1120 Z M 193,1556 L 377,1556 377,1323 193,1323 193,1556 Z"
      />
   <glyph
          id="glyph38"
          horiz-adv-x="927"
          unicode="h"
          d="M 1124,676 L 1124,0 940,0 940,670 C 940,776 919,855 878,908 837,961 775,987 692,987 593,987 514,955 457,892 400,829 371,742 371,633 L 371,0 186,0 186,1556 371,1556 371,946 C 415,1013 467,1064 527,1097 586,1130 655,1147 733,1147 862,1147 959,1107 1025,1028 1091,948 1124,831 1124,676 Z"
      />
   <glyph
          id="glyph40"
          horiz-adv-x="716"
          unicode="f"
          d="M 760,1556 L 760,1403 584,1403 C 518,1403 472,1390 447,1363 421,1336 408,1288 408,1219 L 408,1120 711,1120 711,977 408,977 408,0 223,0 223,977 47,977 47,1120 223,1120 223,1198 C 223,1323 252,1414 310,1471 368,1528 460,1556 586,1556 L 760,1556 Z"
      />
   <glyph
          id="glyph42"
          horiz-adv-x="1033"
          unicode="e"
          d="M 1151,606 L 1151,516 305,516 C 313,389 351,293 420,227 488,160 583,127 705,127 776,127 844,136 911,153 977,170 1043,196 1108,231 L 1108,57 C 1042,29 974,8 905,-7 836,-22 765,-29 694,-29 515,-29 374,23 270,127 165,231 113,372 113,549 113,732 163,878 262,986 361,1093 494,1147 662,1147 813,1147 932,1099 1020,1002 1107,905 1151,773 1151,606 Z M 967,659 C 966,760 938,841 883,901 828,961 755,991 664,991 561,991 479,962 418,904 356,846 320,764 311,659 L 967,659 Z"
      />
   <glyph
          id="glyph44"
          horiz-adv-x="1006"
          unicode="d"
          d="M 930,950 L 930,1556 1114,1556 1114,0 930,0 930,168 C 891,101 843,52 784,20 725,-13 654,-29 571,-29 436,-29 326,25 241,133 156,241 113,383 113,559 113,735 156,877 241,985 326,1093 436,1147 571,1147 654,1147 725,1131 784,1099 843,1066 891,1017 930,950 Z M 303,559 C 303,424 331,318 387,241 442,164 519,125 616,125 713,125 790,164 846,241 902,318 930,424 930,559 930,694 902,801 846,878 790,955 713,993 616,993 519,993 442,955 387,878 331,801 303,694 303,559 Z"
      />
   <glyph
          id="glyph46"
          horiz-adv-x="874"
          unicode="c"
          d="M 999,1077 L 999,905 C 947,934 895,955 843,970 790,984 737,991 684,991 565,991 472,953 406,878 340,802 307,696 307,559 307,422 340,316 406,241 472,165 565,127 684,127 737,127 790,134 843,149 895,163 947,184 999,213 L 999,43 C 948,19 895,1 840,-11 785,-23 726,-29 664,-29 495,-29 361,24 262,130 163,236 113,379 113,559 113,742 163,885 264,990 364,1095 501,1147 676,1147 733,1147 788,1141 842,1130 896,1118 948,1100 999,1077 Z"
      />
   <glyph
          id="glyph48"
          horiz-adv-x="1007"
          unicode="b"
          d="M 997,559 C 997,694 969,801 914,878 858,955 781,993 684,993 587,993 510,955 455,878 399,801 371,694 371,559 371,424 399,318 455,241 510,164 587,125 684,125 781,125 858,164 914,241 969,318 997,424 997,559 Z M 371,950 C 410,1017 459,1066 518,1099 577,1131 647,1147 729,1147 865,1147 976,1093 1061,985 1146,877 1188,735 1188,559 1188,383 1146,241 1061,133 976,25 865,-29 729,-29 647,-29 577,-13 518,20 459,52 410,101 371,168 L 371,0 186,0 186,1556 371,1556 371,950 Z"
      />
   <glyph
          id="glyph50"
          horiz-adv-x="953"
          unicode="a"
          d="M 702,563 C 553,563 450,546 393,512 336,478 307,420 307,338 307,273 329,221 372,183 415,144 473,125 547,125 649,125 731,161 793,234 854,306 885,402 885,522 L 885,563 702,563 Z M 1069,639 L 1069,0 885,0 885,170 C 843,102 791,52 728,20 665,-13 589,-29 498,-29 383,-29 292,3 225,68 157,132 123,218 123,326 123,452 165,547 250,611 334,675 460,707 627,707 L 885,707 885,725 C 885,810 857,875 802,922 746,968 668,991 567,991 503,991 441,983 380,968 319,953 261,930 205,899 L 205,1069 C 272,1095 338,1115 401,1128 464,1141 526,1147 586,1147 748,1147 869,1105 949,1021 1029,937 1069,810 1069,639 Z"
      />
   <glyph
          id="glyph52"
          horiz-adv-x="1271"
          unicode="T"
          d="M -6,1493 L 1257,1493 1257,1323 727,1323 727,0 524,0 524,1323 -6,1323 -6,1493 Z"
      />
   <glyph
          id="glyph54"
          horiz-adv-x="1060"
          unicode="S"
          d="M 1096,1444 L 1096,1247 C 1019,1284 947,1311 879,1329 811,1347 745,1356 682,1356 572,1356 487,1335 428,1292 368,1249 338,1189 338,1110 338,1044 358,994 398,961 437,927 512,900 623,879 L 745,854 C 896,825 1007,775 1079,703 1150,630 1186,533 1186,412 1186,267 1138,158 1041,83 944,8 801,-29 614,-29 543,-29 468,-21 389,-5 309,11 226,35 141,66 L 141,274 C 223,228 303,193 382,170 461,147 538,135 614,135 729,135 818,158 881,203 944,248 975,313 975,397 975,470 953,528 908,569 863,610 789,641 686,662 L 563,686 C 412,716 303,763 236,827 169,891 135,980 135,1094 135,1226 182,1330 275,1406 368,1482 496,1520 659,1520 729,1520 800,1514 873,1501 946,1488 1020,1469 1096,1444 Z"
      />
   <glyph
          id="glyph56"
          horiz-adv-x="1377"
          unicode="O"
          d="M 807,1356 C 660,1356 544,1301 458,1192 371,1083 328,934 328,745 328,557 371,408 458,299 544,190 660,135 807,135 954,135 1070,190 1156,299 1241,408 1284,557 1284,745 1284,934 1241,1083 1156,1192 1070,1301 954,1356 807,1356 Z M 807,1520 C 1016,1520 1184,1450 1309,1310 1434,1169 1497,981 1497,745 1497,510 1434,322 1309,182 1184,41 1016,-29 807,-29 597,-29 429,41 304,181 178,321 115,509 115,745 115,981 178,1169 304,1310 429,1450 597,1520 807,1520 Z"
      />
   <glyph
          id="glyph58"
          horiz-adv-x="927"
          unicode="L"
          d="M 201,1493 L 403,1493 403,170 1130,170 1130,0 201,0 201,1493 Z"
      />
   <glyph
          id="glyph60"
          horiz-adv-x="848"
          unicode="F"
          d="M 201,1493 L 1059,1493 1059,1323 403,1323 403,883 995,883 995,713 403,713 403,0 201,0 201,1493 Z"
      />
   <glyph
          id="glyph62"
          horiz-adv-x="1191"
          unicode="C"
          d="M 1319,1378 L 1319,1165 C 1251,1228 1179,1276 1102,1307 1025,1338 943,1354 856,1354 685,1354 555,1302 464,1198 373,1093 328,942 328,745 328,548 373,398 464,294 555,189 685,137 856,137 943,137 1025,153 1102,184 1179,215 1251,263 1319,326 L 1319,115 C 1248,67 1174,31 1095,7 1016,-17 932,-29 844,-29 618,-29 440,40 310,179 180,317 115,506 115,745 115,985 180,1174 310,1313 440,1451 618,1520 844,1520 933,1520 1018,1508 1097,1485 1176,1461 1250,1425 1319,1378 Z"
      />
   <glyph
          id="glyph64"
          horiz-adv-x="1271"
          unicode="&gt;"
          d="M 217,1008 L 217,1190 1499,725 1499,559 217,94 217,276 1247,641 217,1008 Z"
      />
   <glyph
          id="glyph66"
          horiz-adv-x="1271"
          unicode="&lt;"
          d="M 1499,1008 L 467,641 1499,276 1499,94 217,559 217,725 1499,1190 1499,1008 Z"
      />
   <glyph
          id="glyph68"
          horiz-adv-x="1086"
          unicode="4"
          d="M 774,1317 L 264,520 774,520 774,1317 Z M 721,1493 L 975,1493 975,520 1188,520 1188,352 975,352 975,0 774,0 774,352 100,352 100,547 721,1493 Z"
      />
   <glyph
          id="glyph70"
          horiz-adv-x="900"
          unicode="1"
          d="M 254,170 L 584,170 584,1309 225,1237 225,1421 582,1493 784,1493 784,170 1114,170 1114,0 254,0 254,170 Z"
      />
   <glyph
          id="glyph72"
          horiz-adv-x="689"
          unicode="/"
          d="M 520,1493 L 690,1493 170,-190 0,-190 520,1493 Z"
      />
   <glyph
          id="glyph74"
          horiz-adv-x="635"
          unicode=" "
      />
  </font
    >
  <font
        id="EmbeddedFont_2"
        horiz-origin-x="0"
        horiz-origin-y="0"
        horiz-adv-x="2048"
        vert-origin-x="45"
        vert-origin-y="90"
        vert-adv-y="90"
      >
   <font-face
          id="font-face79"
          font-family="StarSymbol embedded"
          ascent="1879"
          units-per-em="2048"
          descent="635"
      />
   <missing-glyph
          id="missing-glyph81"
          horiz-adv-x="2048"
          d="M 0,0 L 2047,0 2047,2047 0,2047 0,0 Z"
      />
   <glyph
          id="glyph83"
          horiz-adv-x="1191"
          unicode="●"
          d="M 813,0 C 632,0 489,54 383,161 276,268 223,411 223,592 223,773 276,916 383,1023 489,1130 632,1184 813,1184 992,1184 1136,1130 1245,1023 1353,916 1407,772 1407,592 1407,412 1353,268 1245,161 1136,54 992,0 813,0 Z"
      />
   <glyph
          id="glyph85"
          horiz-adv-x="1165"
          unicode="–"
          d="M -4,459 L 1135,459 1135,606 -4,606 -4,459 Z"
      />
  </font
    >
   </defs
  ><sodipodi:namedview
      id="namedview573"
      fit-margin-left="0"
      inkscape:zoom="0.01"
      borderopacity="1"
      inkscape:current-layer="svg2"
      inkscape:cx="14864.001"
      inkscape:cy="-6034.9203"
      inkscape:window-maximized="0"
      showgrid="false"
      fit-margin-right="0"
      bordercolor="#666666"
      inkscape:window-x="0"
      guidetolerance="10"
      objecttolerance="10"
      inkscape:window-y="0"
      fit-margin-bottom="0"
      inkscape:window-width="718"
      inkscape:pageopacity="0"
      inkscape:pageshadow="2"
      pagecolor="#ffffff"
      gridtolerance="10"
      inkscape:window-height="645"
      fit-margin-top="0"
  />
 <g
      id="g394"
      class="Group"
      transform="translate(-13436,-4289.3)"
    >
      <g
        id="g404"
        class="Group"
      >
       <g
          id="g406"
          class="com.sun.star.drawing.CustomShape"
        >
        <g
            id="id31"
          >
         <path
              id="path409"
              style="fill:#fdeada"
              inkscape:connector-curvature="0"
              d="m15144 7760c-143-53-286-106-310-41-23 65 113 389 169 434 57 45 169-165 169-165l-28-228zm28-71zm-341 471z"
          />
         <path
              id="path411"
              style="stroke-linejoin:round;stroke:#984807;stroke-width:71;fill:none"
              inkscape:connector-curvature="0"
              d="m15144 7760c-143-53-286-106-310-41-23 65 113 389 169 434 57 45 169-165 169-165"
          />
         <path
              id="path413"
              style="stroke-linejoin:round;stroke:#984807;stroke-width:71;fill:none"
              inkscape:connector-curvature="0"
              d="m15172 7689z"
          />
         <path
              id="path415"
              style="stroke-linejoin:round;stroke:#984807;stroke-width:71;fill:none"
              inkscape:connector-curvature="0"
              d="m14831 8160z"
          />
        </g
        >
       </g
      >
       <g
          id="g417"
          class="com.sun.star.drawing.CustomShape"
        >
        <g
            id="id32"
          >
         <path
              id="path420"
              style="fill:#fdeada"
              inkscape:connector-curvature="0"
              d="m15133 6779h3063v2479h-3063v-2479zm3063 2479z"
          />
         <path
              id="path422"
              style="stroke-linejoin:round;stroke:#984807;stroke-width:71;fill:none"
              inkscape:connector-curvature="0"
              d="m15133 6779h3063v2479h-3063v-2479z"
          />
        </g
        >
       </g
      >
       <g
          id="g424"
          class="Group"
        >
        <g
            id="g426"
            class="com.sun.star.drawing.CustomShape"
          >
         <g
              id="id33"
            >
          <path
                id="path429"
                style="fill:#000000"
                inkscape:connector-curvature="0"
                d="m17013 7203v-6l-1-2-1-3v-3l-2-2-1-3-1-3-2-2-2-3-2-2-2-2-2-2-3-2-2-2-3-2-3-2-3-2-3-1-4-2-3-1-3-1-4-1-3-1-4-1-4-1h-4l-3-1h-16l-3 1h-4l-4 1-4 1-3 1-4 1-3 1-4 1-3 2-3 1-3 2-3 2-3 2-2 2-3 2-2 2-2 2-2 3-2 2-2 2-1 3-1 3-2 2v3l-1 3-1 2v6h1v6l1 2 1 3v3l2 2 1 3 1 3 2 2 2 2 2 3 2 2 2 2 3 2 2 2 3 2 3 2 3 2 3 1 3 2 4 1 3 1 4 1 3 1 4 1 4 1h4l3 1h8v-1h8l3-1h4l4-1 4-1 3-1 4-1 3-1 3-1 4-2 3-1 3-2 3-2 3-2 2-2 3-2 2-2 2-2 2-2 2-3 2-2 1-3 1-3 2-2v-3l1-3 1-2v-6l-1 1zm0-53zm-147 107z"
            />
          <path
                id="path431"
                style="stroke-linejoin:round;stroke:#000000;stroke-width:71;fill:none"
                inkscape:connector-curvature="0"
                d="m17013 7203v-6l-1-2-1-3v-3l-2-2-1-3-1-3-2-2-2-3-2-2-2-2-2-2-3-2-2-2-3-2-3-2-3-2-3-1-4-2-3-1-3-1-4-1-3-1-4-1-4-1h-4l-3-1h-16l-3 1h-4l-4 1-4 1-3 1-4 1-3 1-4 1-3 2-3 1-3 2-3 2-3 2-2 2-3 2-2 2-2 2-2 3-2 2-2 2-1 3-1 3-2 2v3l-1 3-1 2v6h1v6l1 2 1 3v3l2 2 1 3 1 3 2 2 2 2 2 3 2 2 2 2 3 2 2 2 3 2 3 2 3 2 3 1 3 2 4 1 3 1 4 1 3 1 4 1 4 1h4l3 1h8v-1h8l3-1h4l4-1 4-1 3-1 4-1 3-1 3-1 4-2 3-1 3-2 3-2 3-2 2-2 3-2 2-2 2-2 2-2 2-3 2-2 1-3 1-3 2-2v-3l1-3 1-2v-6l-1 1z"
            />
         </g
          >
        </g
        >
        <g
            id="g433"
            class="com.sun.star.drawing.CustomShape"
          >
         <g
              id="id34"
            >
          <path
                id="path436"
                style="fill:#000000"
                inkscape:connector-curvature="0"
                d="m16280 7418v-6l-1-2-1-3v-3l-2-2-1-3-1-3-2-2-2-3-2-2-2-2-2-2-3-2-2-2-3-2-3-2-3-2-3-1-4-2-3-1-3-1-4-1-3-1-4-1-4-1h-4l-3-1h-16l-3 1h-4l-4 1-4 1-3 1-4 1-3 1-4 1-3 2-3 1-3 2-3 2-3 2-2 2-3 2-2 2-2 2-2 3-2 2-2 2-1 3-1 3-2 2v3l-1 3-1 2v6h1v6l1 2 1 3v3l2 2 1 3 1 3 2 2 2 2 2 3 2 2 2 2 3 2 2 2 3 2 3 2 3 2 3 1 3 2 4 1 3 1 4 1 3 1 4 1 4 1h4l3 1h8v-1h8l3-1h4l4-1 4-1 3-1 4-1 3-1 3-1 4-2 3-1 3-2 3-2 3-2 2-2 3-2 2-2 2-2 2-2 2-3 2-2 1-3 1-3 2-2v-3l1-3 1-2v-6l-1 1zm0-53zm-147 107z"
            />
          <path
                id="path438"
                style="stroke-linejoin:round;stroke:#000000;stroke-width:71;fill:none"
                inkscape:connector-curvature="0"
                d="m16280 7418v-6l-1-2-1-3v-3l-2-2-1-3-1-3-2-2-2-3-2-2-2-2-2-2-3-2-2-2-3-2-3-2-3-2-3-1-4-2-3-1-3-1-4-1-3-1-4-1-4-1h-4l-3-1h-16l-3 1h-4l-4 1-4 1-3 1-4 1-3 1-4 1-3 2-3 1-3 2-3 2-3 2-2 2-3 2-2 2-2 2-2 3-2 2-2 2-1 3-1 3-2 2v3l-1 3-1 2v6h1v6l1 2 1 3v3l2 2 1 3 1 3 2 2 2 2 2 3 2 2 2 2 3 2 2 2 3 2 3 2 3 2 3 1 3 2 4 1 3 1 4 1 3 1 4 1 4 1h4l3 1h8v-1h8l3-1h4l4-1 4-1 3-1 4-1 3-1 3-1 4-2 3-1 3-2 3-2 3-2 2-2 3-2 2-2 2-2 2-2 2-3 2-2 1-3 1-3 2-2v-3l1-3 1-2v-6l-1 1z"
            />
         </g
          >
        </g
        >
       </g
      >
       <g
          id="g440"
          class="com.sun.star.drawing.CustomShape"
        >
        <g
            id="id35"
          >
         <path
              id="path443"
              style="fill:#fdeada"
              inkscape:connector-curvature="0"
              d="m20001 12153 17-22 16-23 14-25 14-24 11-25 9-26 8-25 7-27 4-25 4-27 1-26v-27l-1-27-5-26-5-26-6-26-8-26-10-25-11-25-13-25-15-24-15-24-17-22-19-21-21-22-20-20-23-20-24-18-25-18-25-16-27-16-27-14-30-13-29-12-30-11-31-9-31-9-32-7-32-5-32-4-33-4-33-2h-33l-33 1-32 2-33 4-32 5-32 6-31 7-31 9-31 10-30 11-29 13-29 14-27 15-26 15-26 17-24 18-23 19-22 20-21 20-20 21-18 23-17 22-15 24-13 25-13 24-10 25-9 25-9 26-6 27-3 26-4 27-1 26 2 27 2 26 3 26 6 27 8 26 8 25 10 26 12 24 13 25 15 24 16 23 18 22 19 22 21 21 22 19 22 20 24 18 26 17 26 16 27 15 357-445 551 288zm-1458-131zm1815-315z"
          />
         <path
              id="path445"
              style="stroke-linejoin:round;stroke:#984807;stroke-width:71;fill:none"
              inkscape:connector-curvature="0"
              d="m20001 12153 17-22 16-23 14-25 14-24 11-25 9-26 8-25 7-27 4-25 4-27 1-26v-27l-1-27-5-26-5-26-6-26-8-26-10-25-11-25-13-25-15-24-15-24-17-22-19-21-21-22-20-20-23-20-24-18-25-18-25-16-27-16-27-14-30-13-29-12-30-11-31-9-31-9-32-7-32-5-32-4-33-4-33-2h-33l-33 1-32 2-33 4-32 5-32 6-31 7-31 9-31 10-30 11-29 13-29 14-27 15-26 15-26 17-24 18-23 19-22 20-21 20-20 21-18 23-17 22-15 24-13 25-13 24-10 25-9 25-9 26-6 27-3 26-4 27-1 26 2 27 2 26 3 26 6 27 8 26 8 25 10 26 12 24 13 25 15 24 16 23 18 22 19 22 21 21 22 19 22 20 24 18 26 17 26 16 27 15 357-445 551 288z"
          />
        </g
        >
       </g
      >
       <g
          id="g447"
          class="com.sun.star.drawing.CustomShape"
        >
        <g
            id="id36"
          >
         <path
              id="path450"
              style="fill:#fdeada"
              inkscape:connector-curvature="0"
              d="m16669 7826 4-25 8-24 10-23 13-21 15-22 17-20 20-19 22-18 26-17 27-15 30-15 32-13 33-12 37-10 37-10 40-7 41-6 43-6 44-3 46-2h96l49 3 50 4 51 5 51 6 52 8 53 10 53 11 52 11 53 14 54 15 54 16 54 18 53 19 52 20 51 21 50 22 49 24 47 23 47 25 44 26 43 26 41 28 39 27 37 28 35 29 33 29 30 29 28 30 25 29 23 30 20 29 18 30 15 28 13 30 9 28 6 27 4 28 1 26-2 27h-1l-4 25-9 25-10 23-13 24-17 21-19 20-20 20-25 19-26 16-29 15-31 16-34 13-37 11-37 10-40 9-42 7-43 6-46 4-47 2-47 2-50-1-51-2-52-3-52-5-53-6-53-8-55-10-55-11-54-12-54-14-54-15-54-17-54-17-53-19-52-20-51-21-50-23-49-23-48-24-45-25-45-26-43-26-42-27-38-28-37-28-36-29-32-29-31-29-28-29-25-29-23-30-20-29-18-30-14-30-12-28-10-28-7-29-3-27-1-27 2-26 1 1zm66-492zm1946 1537z"
          />
         <path
              id="path452"
              style="stroke-linejoin:round;stroke:#984807;stroke-width:71;fill:none"
              inkscape:connector-curvature="0"
              d="m16669 7826 4-25 8-24 10-23 13-21 15-22 17-20 20-19 22-18 26-17 27-15 30-15 32-13 33-12 37-10 37-10 40-7 41-6 43-6 44-3 46-2h96l49 3 50 4 51 5 51 6 52 8 53 10 53 11 52 11 53 14 54 15 54 16 54 18 53 19 52 20 51 21 50 22 49 24 47 23 47 25 44 26 43 26 41 28 39 27 37 28 35 29 33 29 30 29 28 30 25 29 23 30 20 29 18 30 15 28 13 30 9 28 6 27 4 28 1 26-2 27h-1l-4 25-9 25-10 23-13 24-17 21-19 20-20 20-25 19-26 16-29 15-31 16-34 13-37 11-37 10-40 9-42 7-43 6-46 4-47 2-47 2-50-1-51-2-52-3-52-5-53-6-53-8-55-10-55-11-54-12-54-14-54-15-54-17-54-17-53-19-52-20-51-21-50-23-49-23-48-24-45-25-45-26-43-26-42-27-38-28-37-28-36-29-32-29-31-29-28-29-25-29-23-30-20-29-18-30-14-30-12-28-10-28-7-29-3-27-1-27 2-26 1 1z"
          />
        </g
        >
       </g
      >
       <g
          id="g454"
          class="com.sun.star.drawing.CustomShape"
        >
        <g
            id="id37"
          >
         <path
              id="path457"
              style="fill:#fdeada"
              inkscape:connector-curvature="0"
              d="m13599 12152-7-27-7-29-4-29-4-30-2-29v-31l2-30 2-31 4-31 5-30 7-31 8-32 9-30 12-30 12-30 13-30 15-29 16-29 17-28 19-27 20-27 19-26 22-25 23-23 23-23 24-22 25-21 25-19 26-18 27-17 27-16 28-14 29-13 28-11 28-10 29-9 28-7 30-5 28-4 28-2 29-1h29l27 3 28 4 26 5 26 7 26 9 25 9 24 11 23 13 23 14 22 16 20 17 20 18 18 20 18 20 16 22 15 23 13 23 13 25 12 26 10 26 8 27 7 28 6 29 3 30 4 28v61l-1 31-3 31-5 31-5 31-7 30-9 31-10 30-11 31-13 30-15 29-14 29-16 29-18 27-18 28-20 26-21 26-22 24-22 24-24 23-25 20-24 21-26 19-27 18-27 16-27 15-164-546-551 288zm1265-30zm-1428-517z"
          />
         <path
              id="path459"
              style="stroke-linejoin:round;stroke:#984807;stroke-width:71;fill:none"
              inkscape:connector-curvature="0"
              d="m13599 12152-7-27-7-29-4-29-4-30-2-29v-31l2-30 2-31 4-31 5-30 7-31 8-32 9-30 12-30 12-30 13-30 15-29 16-29 17-28 19-27 20-27 19-26 22-25 23-23 23-23 24-22 25-21 25-19 26-18 27-17 27-16 28-14 29-13 28-11 28-10 29-9 28-7 30-5 28-4 28-2 29-1h29l27 3 28 4 26 5 26 7 26 9 25 9 24 11 23 13 23 14 22 16 20 17 20 18 18 20 18 20 16 22 15 23 13 23 13 25 12 26 10 26 8 27 7 28 6 29 3 30 4 28v61l-1 31-3 31-5 31-5 31-7 30-9 31-10 30-11 31-13 30-15 29-14 29-16 29-18 27-18 28-20 26-21 26-22 24-22 24-24 23-25 20-24 21-26 19-27 18-27 16-27 15-164-546-551 288z"
          />
        </g
        >
       </g
      >
       <g
          id="g461"
          class="com.sun.star.drawing.CustomShape"
        >
        <g
            id="id38"
          >
         <path
              id="path464"
              style="fill:#000000"
              inkscape:connector-curvature="0"
              d="m15051 6330h3063v354h-3063v-354zm3063 354z"
          />
         <path
              id="path466"
              style="stroke-linejoin:round;stroke:#000000;stroke-width:71;fill:none"
              inkscape:connector-curvature="0"
              d="m15051 6330h3063v354h-3063v-354z"
          />
        </g
        >
       </g
      >
       <g
          id="g468"
          class="com.sun.star.drawing.CustomShape"
        >
        <g
            id="id39"
          >
         <path
              id="path471"
              style="fill:#262626"
              inkscape:connector-curvature="0"
              d="m14947 6306c31-914 63-1828 336-1941 274-113 954 1266 1305 1260s547-1413 800-1294c252 119 484 1064 715 2009l-3156-34zm0-1982zm3157 2017z"
          />
         <path
              id="path473"
              style="stroke-linejoin:round;stroke:#000000;stroke-width:71;fill:none"
              inkscape:connector-curvature="0"
              d="m14947 6306c31-914 63-1828 336-1941 274-113 954 1266 1305 1260s547-1413 800-1294c252 119 484 1064 715 2009"
          />
         <path
              id="path475"
              style="stroke-linejoin:round;stroke:#000000;stroke-width:71;fill:none"
              inkscape:connector-curvature="0"
              d="m14947 4324z"
          />
         <path
              id="path477"
              style="stroke-linejoin:round;stroke:#000000;stroke-width:71;fill:none"
              inkscape:connector-curvature="0"
              d="m18104 6341z"
          />
        </g
        >
       </g
      >
       <g
          id="g479"
          class="com.sun.star.drawing.CustomShape"
        >
        <g
            id="id40"
          >
         <path
              id="path482"
              style="fill:#262626"
              inkscape:connector-curvature="0"
              d="m19067 9208c-258-50-486 62-556 257l-10-3-9 89-195 2057 1065 205 195-2057 8-89-10-1c-30-214-230-408-488-458zm532 102zm-1302 2298z"
          />
         <path
              id="path484"
              style="stroke-linejoin:round;stroke:#000000;stroke-width:71;fill:none"
              inkscape:connector-curvature="0"
              d="m19067 9208c-258-50-486 62-556 257l-10-3-9 89-195 2057 1065 205 195-2057 8-89-10-1c-30-214-230-408-488-458z"
          />
        </g
        >
       </g
      >
       <g
          id="g486"
          class="com.sun.star.drawing.CustomShape"
        >
        <g
            id="id41"
          >
         <path
              id="path489"
              style="fill:#262626"
              inkscape:connector-curvature="0"
              d="m14727 9208c257 49 457 244 487 457l11 2-8 89-195 2057-1065-205 195-2057 9-89 9 2c70-194 298-306 557-256zm-533-103zm828 2708z"
          />
         <path
              id="path491"
              style="stroke-linejoin:round;stroke:#000000;stroke-width:71;fill:none"
              inkscape:connector-curvature="0"
              d="m14727 9208c257 49 457 244 487 457l11 2-8 89-195 2057-1065-205 195-2057 9-89 9 2c70-194 298-306 557-256z"
          />
        </g
        >
       </g
      >
       <g
          id="g493"
          class="com.sun.star.drawing.CustomShape"
        >
        <g
            id="id42"
          >
         <path
              id="path496"
              style="stroke-linejoin:round;stroke:#000000;stroke-width:71;fill:none"
              inkscape:connector-curvature="0"
              d="m15454 8396c220 312 441 624 757 681s975-290 1136-341c162-51-3-8-168 34"
          />
         <path
              id="path498"
              style="stroke-linejoin:round;stroke:#000000;stroke-width:71;fill:none"
              inkscape:connector-curvature="0"
              d="m15454 8396z"
          />
         <path
              id="path500"
              style="stroke-linejoin:round;stroke:#000000;stroke-width:71;fill:none"
              inkscape:connector-curvature="0"
              d="m17414 9084z"
          />
        </g
        >
       </g
      >
       <g
          id="g502"
          class="com.sun.star.drawing.CustomShape"
        >
        <g
            id="id43"
          >
         <path
              id="path505"
              style="fill:#262626"
              inkscape:connector-curvature="0"
              d="m14798 9282h3938v2656h-3938v-2656zm3938 2656z"
          />
         <path
              id="path507"
              style="stroke-linejoin:round;stroke:#000000;stroke-width:71;fill:none"
              inkscape:connector-curvature="0"
              d="m14798 9282h3938v2656h-3938v-2656z"
          />
        </g
        >
       </g
      >
       <g
          id="g509"
          class="com.sun.star.drawing.CustomShape"
        >
        <g
            id="id44"
          >
         <path
              id="path512"
              style="fill:#ffffff"
              inkscape:connector-curvature="0"
              d="m18081 9283-1312 2479-1313-2479h2625zm0 2479zm-2625-2479z"
          />
         <path
              id="path514"
              style="stroke-linejoin:round;stroke:#000000;stroke-width:71;fill:none"
              inkscape:connector-curvature="0"
              d="m18081 9283-1312 2479-1313-2479h2625z"
          />
        </g
        >
       </g
      >
       <g
          id="g516"
          class="com.sun.star.drawing.CustomShape"
        >
        <g
            id="id45"
          >
         <path
              id="path519"
              style="stroke-linejoin:round;stroke:#000000;stroke-width:71;fill:none"
              inkscape:connector-curvature="0"
              d="m15226 9283c-235 176-469 352-421 476 49 125 652 52 716 273 63 221-520 784-337 1056 182 273 1199 477 1431 579 231 103 95 68-42 34"
          />
         <path
              id="path521"
              style="stroke-linejoin:round;stroke:#000000;stroke-width:71;fill:none"
              inkscape:connector-curvature="0"
              d="m14799 9283z"
          />
         <path
              id="path523"
              style="stroke-linejoin:round;stroke:#000000;stroke-width:71;fill:none"
              inkscape:connector-curvature="0"
              d="m16740 11736z"
          />
        </g
        >
       </g
      >
       <g
          id="g525"
          class="com.sun.star.drawing.LineShape"
        >
        <g
            id="id46"
          >
         <path
              id="path528"
              style="stroke-linejoin:round;stroke:#000000;stroke-width:106;fill:none"
              inkscape:connector-curvature="0"
              d="m14175 6685h5032"
          />
        </g
        >
       </g
      >
       <g
          id="g530"
          class="com.sun.star.drawing.CustomShape"
        >
        <g
            id="id47"
          >
         <path
              id="path533"
              style="stroke-linejoin:round;stroke:#000000;stroke-width:71;fill:none"
              inkscape:connector-curvature="0"
              d="m18281 9283c235 176 469 352 421 476-49 125-652 52-716 273-63 221 520 784 337 1056-182 273-1199 477-1431 579-231 103-95 68 42 34"
          />
         <path
              id="path535"
              style="stroke-linejoin:round;stroke:#000000;stroke-width:71;fill:none"
              inkscape:connector-curvature="0"
              d="m18708 9283z"
          />
         <path
              id="path537"
              style="stroke-linejoin:round;stroke:#000000;stroke-width:71;fill:none"
              inkscape:connector-curvature="0"
              d="m16767 11736z"
          />
        </g
        >
       </g
      >
       <g
          id="g539"
          class="com.sun.star.drawing.CustomShape"
        >
        <g
            id="id48"
          >
         <path
              id="path542"
              style="fill:#ff0000"
              inkscape:connector-curvature="0"
              d="m17234 9340-1-7-1-6-3-7-4-6-5-7-7-6-7-6-8-6-10-6-11-6-11-6-13-5-13-5-14-5-16-5-16-5-16-4-18-4-18-4-19-3-19-3-20-3-21-3-21-2-21-2-21-1-22-1-22-1-22-1h-44l-22 1-22 1-22 1-21 1-21 2-21 2-21 3-20 3-19 3-19 3-18 4-18 4-16 4-16 5-16 5-14 5-13 5-13 5-11 6-11 6-10 6-8 6-7 6-7 6-5 7-4 6-3 7-1 6-1 7h1l1 7 1 6 3 7 4 6 5 7 7 6 7 6 8 6 10 6 11 6 11 6 13 5 13 5 14 5 16 5 16 5 16 4 18 4 18 4 19 3 19 3 20 3 21 3 21 2 21 2 21 1 22 1 22 1 22 1h22v-1h22l22-1 22-1 22-1 21-1 21-2 21-2 21-3 20-3 19-3 19-3 18-4 18-4 16-4 16-5 16-5 14-5 13-5 13-5 11-6 11-6 10-6 8-6 7-6 7-6 5-7 4-6 3-7 1-6 1-7-1 1zm0-126zm-845 253z"
          />
         <path
              id="path544"
              style="stroke-linejoin:round;stroke:#000000;stroke-width:71;fill:none"
              inkscape:connector-curvature="0"
              d="m17234 9340-1-7-1-6-3-7-4-6-5-7-7-6-7-6-8-6-10-6-11-6-11-6-13-5-13-5-14-5-16-5-16-5-16-4-18-4-18-4-19-3-19-3-20-3-21-3-21-2-21-2-21-1-22-1-22-1-22-1h-44l-22 1-22 1-22 1-21 1-21 2-21 2-21 3-20 3-19 3-19 3-18 4-18 4-16 4-16 5-16 5-14 5-13 5-13 5-11 6-11 6-10 6-8 6-7 6-7 6-5 7-4 6-3 7-1 6-1 7h1l1 7 1 6 3 7 4 6 5 7 7 6 7 6 8 6 10 6 11 6 11 6 13 5 13 5 14 5 16 5 16 5 16 4 18 4 18 4 19 3 19 3 20 3 21 3 21 2 21 2 21 1 22 1 22 1 22 1h22v-1h22l22-1 22-1 22-1 21-1 21-2 21-2 21-3 20-3 19-3 19-3 18-4 18-4 16-4 16-5 16-5 14-5 13-5 13-5 11-6 11-6 10-6 8-6 7-6 7-6 5-7 4-6 3-7 1-6 1-7-1 1z"
          />
        </g
        >
       </g
      >
       <g
          id="g546"
          class="com.sun.star.drawing.CustomShape"
        >
        <g
            id="id49"
          >
         <path
              id="path549"
              style="fill:#ff0000"
              inkscape:connector-curvature="0"
              d="m17090 9483c190 229 378 458 325 779-54 321-434 1161-651 1144-217-16-623-917-651-1241-27-325 231-516 489-706l488 24zm334-24zm-1313 1948z"
          />
         <path
              id="path551"
              style="stroke-linejoin:round;stroke:#000000;stroke-width:71;fill:none"
              inkscape:connector-curvature="0"
              d="m17090 9483c190 229 378 458 325 779-54 321-434 1161-651 1144-217-16-623-917-651-1241-27-325 231-516 489-706"
          />
         <path
              id="path553"
              style="stroke-linejoin:round;stroke:#000000;stroke-width:71;fill:none"
              inkscape:connector-curvature="0"
              d="m17424 9459z"
          />
         <path
              id="path555"
              style="stroke-linejoin:round;stroke:#000000;stroke-width:71;fill:none"
              inkscape:connector-curvature="0"
              d="m16111 11407z"
          />
        </g
        >
       </g
      >
       <g
          id="g557"
          class="com.sun.star.drawing.CustomShape"
        >
        <g
            id="id50"
          >
         <path
              id="path560"
              style="fill:#262626"
              inkscape:connector-curvature="0"
              d="m15237 11939h1313v3011h-1313v-3011zm1313 3011z"
          />
         <path
              id="path562"
              style="stroke-linejoin:round;stroke:#000000;stroke-width:71;fill:none"
              inkscape:connector-curvature="0"
              d="m15237 11939h1313v3011h-1313v-3011z"
          />
        </g
        >
       </g
      >
       <g
          id="g564"
          class="com.sun.star.drawing.CustomShape"
        >
        <g
            id="id51"
          >
         <path
              id="path567"
              style="fill:#262626"
              inkscape:connector-curvature="0"
              d="m16987 11939h1313v3011h-1313v-3011zm1313 3011z"
          />
         <path
              id="path569"
              style="stroke-linejoin:round;stroke:#000000;stroke-width:71;fill:none"
              inkscape:connector-curvature="0"
              d="m16987 11939h1313v3011h-1313v-3011z"
          />
        </g
        >
       </g
      >
      </g
    >
     </g
  >
<metadata
      id="metadata140"
    ><rdf:RDF
      ><cc:Work
        ><dc:format
          >image/svg+xml</dc:format
        ><dc:type
            rdf:resource="http://purl.org/dc/dcmitype/StillImage"
        /><cc:license
            rdf:resource="http://creativecommons.org/licenses/publicdomain/"
        /><dc:publisher
          ><cc:Agent
              rdf:about="http://openclipart.org/"
            ><dc:title
              >Openclipart</dc:title
            ></cc:Agent
          ></dc:publisher
        ></cc:Work
      ><cc:License
          rdf:about="http://creativecommons.org/licenses/publicdomain/"
        ><cc:permits
            rdf:resource="http://creativecommons.org/ns#Reproduction"
        /><cc:permits
            rdf:resource="http://creativecommons.org/ns#Distribution"
        /><cc:permits
            rdf:resource="http://creativecommons.org/ns#DerivativeWorks"
        /></cc:License
      ></rdf:RDF
    ></metadata
  ></svg
>
</font>
</defs>
</svg>
